<svg width="12" height="12" viewBox="0 0 12 12" fill="none" xmlns="http://www.w3.org/2000/svg">
<path d="M9.36047 1.87522C9.22645 1.88566 9.09836 1.93489 8.99185 2.01691C8.88533 2.09893 8.805 2.21018 8.76066 2.33708C8.71632 2.46399 8.70988 2.60106 8.74214 2.73157C8.7744 2.86207 8.84396 2.98036 8.94232 3.07199C9.32723 3.45614 9.63241 3.91258 9.84033 4.41507C10.0482 4.91756 10.1548 5.45619 10.1539 5.99999C10.1545 6.54375 10.0478 7.08229 9.83991 7.58474C9.632 8.08719 9.32698 8.54366 8.94232 8.92799C8.87546 8.99184 8.82205 9.0684 8.7852 9.15318C8.74836 9.23796 8.72883 9.32925 8.72777 9.42168C8.7267 9.51412 8.74412 9.60583 8.77901 9.69144C8.81389 9.77704 8.86553 9.85481 8.9309 9.92018C8.99626 9.98555 9.07403 10.0372 9.15964 10.0721C9.24525 10.107 9.33696 10.1244 9.4294 10.1233C9.52183 10.1222 9.61312 10.1027 9.6979 10.0659C9.78268 10.029 9.85924 9.97561 9.92309 9.90876C10.9577 8.87101 11.5387 7.46539 11.5387 5.99999C11.5387 4.53459 10.9577 3.12897 9.92309 2.09122C9.85981 2.02433 9.78383 1.97073 9.69959 1.93356C9.61534 1.89639 9.52453 1.8764 9.43247 1.87476C9.40849 1.87351 9.38445 1.87351 9.36047 1.87476V1.87522ZM2.48078 1.88907C2.32735 1.90942 2.18517 1.98059 2.07693 2.09122C1.0423 3.12897 0.461304 4.53459 0.461304 5.99999C0.461304 7.46539 1.0423 8.87101 2.07693 9.90876C2.14078 9.97561 2.21734 10.029 2.30212 10.0659C2.3869 10.1027 2.47819 10.1222 2.57062 10.1233C2.66306 10.1244 2.75477 10.107 2.84038 10.0721C2.92598 10.0372 3.00375 9.98555 3.06912 9.92018C3.13449 9.85481 3.18613 9.77704 3.22101 9.69144C3.25589 9.60583 3.27332 9.51412 3.27225 9.42168C3.27119 9.32925 3.25166 9.23796 3.21482 9.15318C3.17797 9.0684 3.12455 8.99184 3.0577 8.92799C2.67279 8.54384 2.36761 8.08741 2.15969 7.58492C1.95177 7.08243 1.84522 6.5438 1.84616 5.99999C1.84552 5.45623 1.95221 4.91769 2.16011 4.41524C2.36801 3.9128 2.67304 3.45632 3.0577 3.07199C3.16236 2.97036 3.23223 2.83826 3.25735 2.69456C3.28247 2.55085 3.26155 2.40288 3.19758 2.27177C3.13362 2.14066 3.02986 2.03311 2.90114 1.96446C2.77241 1.89582 2.62529 1.86913 2.48078 1.88907ZM4.24062 3.41815C4.08883 3.43447 3.94669 3.50051 3.83632 3.60599C3.50138 3.90859 3.23342 4.27788 3.04965 4.69017C2.86589 5.10245 2.77037 5.54861 2.76924 5.99999C2.76924 6.94522 3.17078 7.80461 3.82201 8.39445C3.88929 8.456 3.96803 8.5037 4.05374 8.53482C4.13945 8.56594 4.23045 8.57987 4.32154 8.57582C4.41264 8.57177 4.50204 8.54982 4.58465 8.51121C4.66726 8.47261 4.74146 8.41812 4.80301 8.35084C4.86456 8.28356 4.91225 8.20482 4.94337 8.11911C4.97449 8.0334 4.98842 7.9424 4.98437 7.85131C4.98032 7.76021 4.95837 7.67081 4.91977 7.5882C4.88117 7.50559 4.82667 7.43139 4.75939 7.36984C4.56779 7.19694 4.41482 6.98557 4.31047 6.74952C4.20613 6.51348 4.15276 6.25807 4.15385 5.99999C4.1529 5.74182 4.20637 5.48635 4.31079 5.25024C4.41521 5.01413 4.56822 4.80268 4.75985 4.62968C4.87046 4.53346 4.94767 4.40461 4.98035 4.2617C5.01303 4.11878 4.9995 3.96918 4.9417 3.83445C4.88391 3.69972 4.78484 3.58681 4.65876 3.512C4.53268 3.43718 4.38657 3.40432 4.24062 3.41815ZM7.65878 3.41815C7.52148 3.42572 7.38954 3.474 7.27979 3.55685C7.17004 3.63969 7.08745 3.75334 7.04254 3.88331C6.99763 4.01328 6.99245 4.15368 7.02764 4.28661C7.06284 4.41953 7.13682 4.53897 7.24016 4.62968C7.43191 4.80259 7.585 5.01402 7.68943 5.25015C7.79386 5.48629 7.84726 5.7418 7.84616 5.99999C7.84712 6.25816 7.79364 6.51363 7.68923 6.74974C7.58481 6.98585 7.4318 7.1973 7.24016 7.3703C7.16302 7.42791 7.09875 7.50098 7.05144 7.58484C7.00414 7.6687 6.97485 7.7615 6.96544 7.85732C6.95603 7.95314 6.96671 8.04987 6.9968 8.14133C7.02689 8.23279 7.07572 8.31696 7.14018 8.38848C7.20464 8.46 7.28331 8.51729 7.37116 8.55668C7.45901 8.59608 7.55411 8.61671 7.65039 8.61728C7.74667 8.61784 7.84201 8.59831 7.93031 8.55995C8.01862 8.52158 8.09795 8.46521 8.16324 8.39445C8.49832 8.09185 8.7664 7.7225 8.95025 7.31013C9.1341 6.89776 9.22965 6.45149 9.23078 5.99999C9.23249 5.54945 9.13969 5.10355 8.95835 4.69111C8.77701 4.27866 8.51117 3.90884 8.17801 3.60553C8.10894 3.54036 8.0272 3.49009 7.93788 3.45785C7.84855 3.42561 7.75355 3.4121 7.65878 3.41815ZM6.00001 5.16368C5.83462 5.16378 5.67298 5.2129 5.53551 5.30485C5.39804 5.3968 5.29092 5.52745 5.22769 5.68027C5.16446 5.83309 5.14797 6.00123 5.18029 6.16343C5.21261 6.32563 5.2923 6.4746 5.40927 6.59151C5.52625 6.70843 5.67527 6.78803 5.83748 6.82026C5.9997 6.8525 6.16783 6.83591 6.32062 6.7726C6.47341 6.70928 6.60399 6.60209 6.69587 6.46457C6.78774 6.32705 6.83678 6.16538 6.83678 5.99999C6.83696 5.89006 6.81544 5.78116 6.77345 5.67956C6.73147 5.57796 6.66984 5.48564 6.5921 5.4079C6.51436 5.33016 6.42205 5.26853 6.32044 5.22655C6.21884 5.18456 6.10995 5.1635 6.00001 5.16368Z" fill="black"/>
</svg>
