<svg width="75" height="73" viewBox="0 0 75 73" fill="none" xmlns="http://www.w3.org/2000/svg">
<g clip-path="url(#clip0_31_35)">
<path d="M70.5797 4.92603H68.526V4.11657C68.5261 2.33439 67.0182 0.884613 65.1648 0.884613C63.3113 0.884613 61.8035 2.33439 61.8035 4.11657V4.92603H55.0418C54.4349 4.92603 53.9432 5.39901 53.9432 5.98241C53.9432 6.56581 54.4349 7.03879 55.0418 7.03879H61.8035V9.58015C61.8035 11.3623 63.3114 12.8121 65.1648 12.8121C67.0181 12.8121 68.526 11.3623 68.526 9.58015V7.03879H70.5797C71.6293 7.03879 72.4833 7.8598 72.4833 8.86914V15.8956H7.13162V8.86914C7.13162 7.8598 7.98562 7.03879 9.03518 7.03879H11.0889V9.58015C11.0889 11.3623 12.5968 12.8121 14.4501 12.8121C16.3034 12.8121 17.8114 11.3623 17.8114 9.58015V7.03879H49.9149C50.5217 7.03879 51.0135 6.56581 51.0135 5.98241C51.0135 5.39901 50.5217 4.92603 49.9149 4.92603H17.8114V4.11657C17.8114 2.33439 16.3034 0.884613 14.4501 0.884613C12.5968 0.884613 11.0887 2.33439 11.0887 4.11657V4.92603H9.03503C6.77375 4.92603 4.9342 6.69483 4.9342 8.86914V70.5003C4.9342 71.8787 6.10051 73.0001 7.53401 73.0001H72.0807C73.5142 73.0001 74.6805 71.8788 74.6805 70.5003V8.86914C74.6805 6.69483 72.841 4.92603 70.5797 4.92603ZM66.3289 9.58015C66.3289 10.1972 65.8068 10.6993 65.1649 10.6993C64.523 10.6993 64.0009 10.1972 64.0009 9.58015V4.11657C64.0009 3.4995 64.523 2.99737 65.1649 2.99737C65.8068 2.99737 66.3289 3.4995 66.3289 4.11657V9.58015ZM13.286 4.11657C13.286 3.4995 13.8081 2.99737 14.45 2.99737C15.0919 2.99737 15.6139 3.4995 15.6139 4.11657V9.58015C15.6139 10.1972 15.0919 10.6993 14.45 10.6993C13.8081 10.6993 13.286 10.1972 13.286 9.58015V4.11657ZM72.4833 70.5002C72.4832 70.6028 72.4408 70.7012 72.3653 70.7738C72.2898 70.8464 72.1875 70.8872 72.0807 70.8872H7.53416C7.42742 70.8872 7.32508 70.8464 7.2496 70.7738C7.17413 70.7012 7.13169 70.6028 7.13162 70.5002V68.2369H22.8153C23.4221 68.2369 23.9139 67.7639 23.9139 67.1805C23.9139 66.5971 23.4221 66.1241 22.8153 66.1241H7.13162V63.4739H48.4402L51.0112 65.9459C51.0755 66.0078 51.1421 66.0666 51.2098 66.1241H27.9422C27.3353 66.1241 26.8436 66.5971 26.8436 67.1805C26.8436 67.7639 27.3353 68.2369 27.9422 68.2369H72.4833V70.5002ZM30.3954 52.7167C23.2676 52.7167 17.4686 47.1409 17.4686 40.2871C17.4686 33.4333 23.2676 27.8575 30.3954 27.8575C37.5232 27.8575 43.3222 33.4333 43.3222 40.2871C43.3222 47.1407 37.5232 52.7167 30.3954 52.7167ZM36.2696 53.6876V55.4433H33.5883V54.5021C34.5066 54.312 35.4043 54.0393 36.2696 53.6876ZM26.5124 54.3427V55.4433H23.8311V53.3869C24.6912 53.7868 25.589 54.1068 26.5124 54.3427ZM26.0417 26.3598H14.0741V23.7817H26.5124V26.2315C26.3548 26.2718 26.1979 26.3146 26.0417 26.3598ZM33.5883 26.0719V23.7817H46.0266V26.3598H34.749C34.3682 26.2495 33.981 26.1533 33.5883 26.0719ZM41.9414 49.6686L44.8447 52.4602L43.0554 54.1807L40.1521 51.389C40.7971 50.8642 41.3956 50.2887 41.9414 49.6686ZM46.9847 53.3902L55.5268 61.6039C56.3435 62.3892 56.3435 63.6668 55.5268 64.4521C55.3328 64.6397 55.1021 64.7884 54.8479 64.8897C54.5937 64.9909 54.3211 65.0427 54.046 65.042C53.4866 65.042 52.9606 64.8325 52.5651 64.4521L44.0228 56.2384L46.9847 53.3902ZM72.4833 66.1242H56.8821C56.9498 66.0668 57.0164 66.0079 57.0807 65.9461C57.7995 65.2549 58.2085 64.3776 58.3099 63.474H72.4834V66.1242H72.4833ZM72.4833 61.3611H57.9708C57.7574 60.8945 57.4556 60.4702 57.0806 60.1099L54.4245 57.556H56.4426C57.2908 57.556 57.9807 56.8926 57.9807 56.0771V52.2313C57.9807 51.4158 57.2908 50.7524 56.4426 50.7524H52.443C51.5949 50.7524 50.9049 51.4158 50.9049 52.2313V54.1718L48.2792 51.6471C48.1096 51.4831 47.9078 51.3531 47.6855 51.2647C47.4633 51.1762 47.225 51.1309 46.9844 51.1316C46.8569 51.1316 46.7313 51.1447 46.6092 51.169L43.2503 47.9393C43.2671 47.9133 43.2842 47.8876 43.3008 47.8615H46.6855C47.5336 47.8615 48.2236 47.198 48.2236 46.3825V42.5369C48.2236 41.7214 47.5336 41.058 46.6855 41.058H45.4979C45.5511 40.0922 45.5042 39.1238 45.3579 38.167H46.6853C47.5335 38.167 48.2234 37.5036 48.2234 36.6881V32.8423C48.2234 32.0268 47.5335 31.3634 46.6853 31.3634H42.6857C42.5726 31.3634 42.4632 31.377 42.3572 31.3994C41.4578 30.2828 40.3955 29.297 39.203 28.4724H46.6852C47.5333 28.4724 48.2233 27.809 48.2233 26.9935V23.1477C48.2233 22.3322 47.5333 21.6688 46.6852 21.6688H32.9285C32.0804 21.6688 31.3905 22.3322 31.3905 23.1477V25.7768C31.059 25.7556 30.727 25.7449 30.3948 25.7446C29.825 25.7446 29.2628 25.7761 28.7091 25.8354V23.1477C28.7091 22.3322 28.0191 21.6688 27.171 21.6688H13.4149C12.5668 21.6688 11.8768 22.3322 11.8768 23.1477V26.9935C11.8768 27.809 12.5668 28.4724 13.4149 28.4724H21.5871C20.319 29.349 19.1985 30.4077 18.2647 31.6114C18.0132 31.4496 17.7173 31.3632 17.4147 31.3634H13.4149C12.5668 31.3634 11.8768 32.0268 11.8768 32.8423V36.6881C11.8768 37.5036 12.5668 38.167 13.4149 38.167H15.4324C15.2863 39.1238 15.2394 40.0922 15.2924 41.058H13.4149C12.5668 41.058 11.8768 41.7214 11.8768 42.5369V46.3827C11.8768 47.1982 12.5668 47.8616 13.4149 47.8616H17.4147C17.4391 47.8616 17.4632 47.8592 17.4873 47.8581C18.5579 49.5385 19.97 50.9942 21.639 52.138C21.6369 52.1691 21.6339 52.1999 21.6339 52.2315V56.0773C21.6339 56.8928 22.3238 57.5562 23.1719 57.5562H27.1716C28.0197 57.5562 28.7096 56.8928 28.7096 56.0773V54.7386C29.2634 54.7979 29.8256 54.8295 30.3954 54.8295C30.73 54.8295 31.0617 54.8178 31.391 54.7972V56.0773C31.391 56.8928 32.081 57.5562 32.9291 57.5562H36.9287C37.7769 57.5562 38.4668 56.8928 38.4668 56.0773V52.7564L41.7128 55.8775C41.687 55.9963 41.6739 56.1172 41.6738 56.2385C41.6731 56.4698 41.7202 56.699 41.8123 56.9127C41.9043 57.1264 42.0395 57.3204 42.2101 57.4835L46.2429 61.3613H7.13162V18.0082H72.4834V61.3611H72.4833ZM53.1025 55.4434V52.8653H55.7838V55.4434H53.1025ZM44.8654 36.0542C44.5825 35.1624 44.2106 34.299 43.7548 33.4761H46.0267V36.0542H44.8654ZM45.2203 43.1707H46.0266V45.7488H44.4114C44.7641 44.9156 45.0349 44.0525 45.2203 43.1707ZM15.9255 36.0542H14.0741V33.4761H16.7555V34.0074C16.4252 34.6684 16.1477 35.3527 15.9255 36.0542ZM16.3795 45.7488H14.0741V43.1707H15.5704C15.7558 44.0525 16.0267 44.9156 16.3795 45.7488Z" fill="white"/>
<path d="M52.4433 28.4726H66.2C67.0481 28.4726 67.7381 27.8092 67.7381 26.9936V23.1479C67.7381 22.3323 67.0481 21.6689 66.2 21.6689H52.4433C51.5952 21.6689 50.9052 22.3323 50.9052 23.1479V26.9936C50.9052 27.8092 51.5952 28.4726 52.4433 28.4726ZM53.1025 23.7817H65.5408V26.3598H53.1025V23.7817ZM52.4433 38.167H56.4429C57.2911 38.167 57.981 37.5036 57.981 36.6881V32.8423C57.981 32.0268 57.2911 31.3634 56.4429 31.3634H52.4433C51.5952 31.3634 50.9052 32.0268 50.9052 32.8423V36.6881C50.9052 37.5036 51.5952 38.167 52.4433 38.167ZM53.1025 33.4763H55.7838V36.0544H53.1025V33.4763ZM52.4433 47.8616H56.4429C57.2911 47.8616 57.981 47.1982 57.981 46.3827V42.5369C57.981 41.7214 57.2911 41.058 56.4429 41.058H52.4433C51.5952 41.058 50.9052 41.7214 50.9052 42.5369V46.3827C50.9052 47.198 51.5952 47.8616 52.4433 47.8616ZM53.1025 43.1707H55.7838V45.7488H53.1025V43.1707ZM13.4149 57.5562H17.4147C18.2628 57.5562 18.9528 56.8928 18.9528 56.0773V52.2315C18.9528 51.416 18.2628 50.7526 17.4147 50.7526H13.4149C12.5668 50.7526 11.8768 51.416 11.8768 52.2315V56.0773C11.8768 56.8926 12.5668 57.5562 13.4149 57.5562ZM14.0741 52.8652H16.7555V55.4433H14.0741V52.8652ZM66.2 31.3635H62.2002C61.3521 31.3635 60.6621 32.0269 60.6621 32.8424V36.6882C60.6621 37.5037 61.3521 38.1671 62.2002 38.1671H66.2C67.0481 38.1671 67.7381 37.5037 67.7381 36.6882V32.8424C67.7381 32.0269 67.0481 31.3635 66.2 31.3635ZM65.5408 36.0543H62.8594V33.4761H65.5408V36.0543ZM66.2 41.058H62.2002C61.3521 41.058 60.6621 41.7214 60.6621 42.5369V46.3827C60.6621 47.1982 61.3521 47.8616 62.2002 47.8616H66.2C67.0481 47.8616 67.7381 47.1982 67.7381 46.3827V42.5369C67.7381 41.7214 67.0481 41.058 66.2 41.058ZM65.5408 45.7488H62.8594V43.1707H65.5408V45.7488ZM66.2 50.7524H62.2002C61.3521 50.7524 60.6621 51.4158 60.6621 52.2313V56.0771C60.6621 56.8926 61.3521 57.556 62.2002 57.556H66.2C67.0481 57.556 67.7381 56.8926 67.7381 56.0771V52.2313C67.7381 51.416 67.0481 50.7524 66.2 50.7524ZM65.5408 55.4434H62.8594V52.8653H65.5408V55.4434ZM20.5456 11.1784C20.5456 11.4586 20.6614 11.7272 20.8674 11.9254C21.0734 12.1235 21.3529 12.2348 21.6443 12.2348H57.9706C58.5775 12.2348 59.0693 11.7618 59.0693 11.1784C59.0693 10.595 58.5775 10.122 57.9706 10.122H21.6443C21.3529 10.122 21.0734 10.2333 20.8674 10.4314C20.6614 10.6295 20.5456 10.8982 20.5456 11.1784ZM40.5293 43.6227C40.6201 43.3585 40.5989 43.0706 40.4702 42.8214C40.3415 42.5722 40.1157 42.3818 39.8419 42.2917C39.5682 42.2016 39.2685 42.219 39.008 42.3401C38.7475 42.4613 38.5471 42.6763 38.4506 42.9386C37.2719 46.2494 34.0349 48.474 30.3955 48.474C25.7007 48.474 21.8813 44.8015 21.8813 40.2872C21.8813 35.773 25.7007 32.1003 30.3955 32.1003C34.3883 32.1003 37.8897 34.8217 38.7211 38.5711C38.7505 38.7074 38.8077 38.8368 38.8893 38.9518C38.9709 39.0668 39.0753 39.1651 39.1965 39.2412C39.3178 39.3173 39.4535 39.3695 39.5958 39.395C39.7382 39.4205 39.8843 39.4186 40.0259 39.3896C40.1675 39.3606 40.3018 39.3049 40.4209 39.2258C40.5401 39.1468 40.6418 39.0458 40.7202 38.9288C40.7987 38.8118 40.8523 38.681 40.878 38.544C40.9037 38.407 40.901 38.2665 40.87 38.1305C39.8237 33.412 35.4185 29.9875 30.3955 29.9875C24.4893 29.9875 19.684 34.608 19.684 40.2872C19.684 45.9665 24.4893 50.5868 30.3955 50.5868C34.9742 50.5866 39.0468 47.7879 40.5293 43.6227Z" fill="white"/>
<path d="M36.2972 38.8597C36.2024 38.5754 36.0262 38.3225 35.7888 38.1301C35.5514 37.9376 35.2624 37.8134 34.955 37.7716L32.8346 37.4754L31.8863 35.6279L31.8862 35.6278C31.7497 35.3595 31.5375 35.1337 31.2738 34.9761C31.01 34.8185 30.7055 34.7356 30.3949 34.7367C30.0845 34.7356 29.78 34.8186 29.5163 34.9762C29.2526 35.1338 29.0405 35.3597 28.9042 35.6279L27.9558 37.4754L25.8353 37.7718C25.5279 37.8136 25.2389 37.9379 25.0015 38.1303C24.7642 38.3228 24.588 38.5757 24.4932 38.86C24.3961 39.1435 24.384 39.4477 24.4584 39.7375C24.5328 40.0274 24.6906 40.2912 24.9138 40.4988L26.4482 41.9369L26.0861 43.9674C25.9783 44.5716 26.2316 45.1707 26.7473 45.5311C27.2631 45.8915 27.934 45.9381 28.4986 45.6529L30.3951 44.6942L32.2916 45.6529C32.5305 45.7744 32.7966 45.8379 33.0668 45.8381C33.4102 45.8381 33.7512 45.7348 34.0425 45.5311C34.2945 45.3565 34.4901 45.1172 34.6071 44.8407C34.7241 44.5641 34.7577 44.2614 34.7041 43.9674L34.342 41.9367L35.8762 40.4986C36.0995 40.2911 36.2574 40.0273 36.3319 39.7374C36.4063 39.4475 36.3943 39.1433 36.2972 38.8597ZM32.6076 40.6122C32.4144 40.793 32.2699 41.0164 32.1865 41.263C32.1032 41.5095 32.0835 41.7719 32.1292 42.0274L32.3558 43.298L31.1687 42.698C30.9302 42.5775 30.6649 42.5146 30.3955 42.5146C30.1298 42.5146 29.8639 42.5759 29.6216 42.6982L28.435 43.298L28.6617 42.0273C28.754 41.5088 28.5753 40.9799 28.1835 40.6126L27.2234 39.7128L28.5503 39.5275C28.817 39.4902 29.0703 39.3911 29.2884 39.2387C29.5065 39.0864 29.6828 38.8853 29.8021 38.6529L30.3954 37.4971L30.9888 38.6532C31.1082 38.8856 31.2845 39.0865 31.5026 39.2388C31.7206 39.3911 31.9739 39.4902 32.2406 39.5275L33.5674 39.7128L32.6076 40.6122Z" fill="white"/>
</g>
<defs>
<clipPath id="clip0_31_35">
<rect width="75" height="72.1154" fill="white" transform="translate(0 0.884644)"/>
</clipPath>
</defs>
</svg>
