<svg width="79" height="79" viewBox="0 0 79 79" fill="none" xmlns="http://www.w3.org/2000/svg">
<path d="M74.0625 17.2812C74.717 17.2805 75.3445 17.0202 75.8074 16.5574C76.2702 16.0945 76.5305 15.467 76.5312 14.8125V7.40625C76.5298 6.09719 76.0091 4.84218 75.0835 3.91653C74.1578 2.99089 72.9028 2.47022 71.5938 2.46875H13.5781C12.5963 2.46985 11.6551 2.86036 10.9608 3.55459C10.2666 4.24882 9.8761 5.19008 9.875 6.17187V66.6562H4.9375C4.28297 66.657 3.65546 66.9173 3.19264 67.3801C2.72982 67.843 2.46949 68.4705 2.46875 69.125V71.5937C2.47022 72.9028 2.99089 74.1578 3.91653 75.0835C4.84218 76.0091 6.09719 76.5298 7.40625 76.5312H49.375V74.0625H7.40625C6.75172 74.0618 6.12421 73.8014 5.66139 73.3386C5.19857 72.8758 4.93824 72.2483 4.9375 71.5937V69.125H33.0396C33.3863 69.5134 33.8111 69.8242 34.2863 70.0369C34.7615 70.2496 35.2762 70.3595 35.7969 70.3594H50.0161L55.5469 77.2728L61.0776 70.3594H72.8281C73.8099 70.3583 74.7512 69.9678 75.4454 69.2735C76.1396 68.5793 76.5301 67.638 76.5312 66.6562V39.5C76.5301 38.5182 76.1396 37.5769 75.4454 36.8827C74.7512 36.1885 73.8099 35.798 72.8281 35.7969H69.125V17.2812H74.0625ZM69.125 7.40625C69.125 6.7515 69.3851 6.12356 69.8481 5.66058C70.3111 5.1976 70.939 4.9375 71.5938 4.9375C72.2485 4.9375 72.8764 5.1976 73.3394 5.66058C73.8024 6.12356 74.0625 6.7515 74.0625 7.40625V14.8125H69.125V7.40625ZM32.0938 39.5V66.6562H12.3438V6.17187C12.3442 5.84462 12.4743 5.53089 12.7057 5.29949C12.9371 5.06809 13.2509 4.93791 13.5781 4.9375H67.3205C66.8848 5.68724 66.6556 6.53909 66.6562 7.40625V35.7969H35.7969C34.8151 35.798 33.8738 36.1885 33.1796 36.8827C32.4854 37.5769 32.0949 38.5182 32.0938 39.5ZM72.8281 38.2656C73.1554 38.266 73.4691 38.3962 73.7005 38.6276C73.9319 38.859 74.0621 39.1727 74.0625 39.5V66.6562C74.0621 66.9835 73.9319 67.2972 73.7005 67.5286C73.4691 67.76 73.1554 67.8902 72.8281 67.8906H59.8911L55.5469 73.3209L51.2026 67.8906H35.7969C35.4696 67.8902 35.1559 67.76 34.9245 67.5286C34.6931 67.2972 34.5629 66.9835 34.5625 66.6562V39.5C34.5629 39.1727 34.6931 38.859 34.9245 38.6276C35.1559 38.3962 35.4696 38.266 35.7969 38.2656H72.8281Z" fill="white"/>
<path d="M38.2656 65.4219H45.6719V58.5643L46.9062 57.45V51.0464C46.9086 50.3379 46.7067 49.6438 46.3246 49.0472C45.9425 48.4506 45.3965 47.9768 44.752 47.6827C45.3472 47.0064 45.6744 46.1357 45.6719 45.2348V44.729C45.6742 44.0407 45.4836 43.3656 45.1218 42.7802C44.7599 42.1947 44.2413 41.7224 43.6247 41.4167C43.1101 41.161 42.5433 41.0279 41.9687 41.0279C41.3941 41.0279 40.8273 41.161 40.3127 41.4167C39.696 41.7224 39.1774 42.1948 38.8156 42.7802C38.4538 43.3657 38.2632 44.0409 38.2656 44.7291V45.2349C38.2631 46.1358 38.5903 47.0065 39.1855 47.6828C38.541 47.977 37.995 48.4507 37.6129 49.0473C37.2308 49.6439 37.0289 50.3381 37.0312 51.0465V57.4503L38.2656 58.5643V65.4219ZM40.7344 44.729C40.7344 44.4016 40.8644 44.0876 41.0959 43.8561C41.3274 43.6246 41.6414 43.4946 41.9688 43.4946C42.2961 43.4946 42.6101 43.6246 42.8416 43.8561C43.0731 44.0876 43.2031 44.4016 43.2031 44.729V45.2348C43.2039 45.4816 43.1303 45.7231 42.9919 45.9275C42.8535 46.1319 42.6567 46.2899 42.4272 46.3809L41.9688 46.5643L41.5103 46.3809C41.2808 46.2899 41.084 46.1319 40.9456 45.9275C40.8072 45.7231 40.7336 45.4816 40.7344 45.2348V44.729ZM39.5 51.0465C39.4992 50.7996 39.5728 50.5582 39.7112 50.3538C39.8496 50.1493 40.0464 49.9913 40.276 49.9004L41.9688 49.2232L43.6615 49.9004C43.8911 49.9913 44.0879 50.1493 44.2263 50.3538C44.3647 50.5582 44.4383 50.7996 44.4375 51.0465V56.3528L43.2031 57.4668V62.9531H40.7344V57.467L39.5 56.3529V51.0465ZM50.6094 65.4219H58.0156V58.5643L59.25 57.45V51.0464C59.2524 50.3379 59.0504 49.6438 58.6683 49.0472C58.2862 48.4506 57.7402 47.9768 57.0957 47.6827C57.6909 47.0064 58.0181 46.1357 58.0156 45.2348V44.729C58.0179 44.0407 57.8274 43.3656 57.4655 42.7802C57.1037 42.1947 56.585 41.7224 55.9684 41.4167C55.4538 41.161 54.887 41.0279 54.3124 41.0279C53.7378 41.0279 53.171 41.161 52.6564 41.4167C52.0398 41.7224 51.5212 42.1948 51.1593 42.7802C50.7975 43.3657 50.607 44.0409 50.6094 44.7291V45.2349C50.6069 46.1358 50.9341 47.0065 51.5293 47.6828C50.8848 47.977 50.3388 48.4507 49.9567 49.0473C49.5746 49.6439 49.3726 50.3381 49.375 51.0465V57.4503L50.6094 58.5643V65.4219ZM53.0781 44.729C53.0781 44.4016 53.2082 44.0876 53.4397 43.8561C53.6712 43.6246 53.9851 43.4946 54.3125 43.4946C54.6399 43.4946 54.9538 43.6246 55.1853 43.8561C55.4168 44.0876 55.5469 44.4016 55.5469 44.729V45.2348C55.5477 45.4816 55.4741 45.7231 55.3357 45.9275C55.1972 46.1319 55.0004 46.2899 54.7709 46.3809L54.3125 46.5643L53.8541 46.3809C53.6246 46.2899 53.4278 46.1319 53.2893 45.9275C53.1509 45.7231 53.0773 45.4816 53.0781 45.2348V44.729ZM51.8438 51.0465C51.8429 50.7996 51.9166 50.5582 52.055 50.3538C52.1934 50.1493 52.3902 49.9913 52.6197 49.9004L54.3125 49.2232L56.0053 49.9004C56.2348 49.9913 56.4316 50.1493 56.57 50.3538C56.7084 50.5582 56.7821 50.7996 56.7812 51.0465V56.3528L55.5469 57.4668V62.9531H53.0781V57.467L51.8438 56.3529V51.0465ZM62.9531 65.4219H70.3594V58.5643L71.5938 57.45V51.0464C71.5961 50.3379 71.3942 49.6438 71.0121 49.0472C70.63 48.4506 70.084 47.9768 69.4395 47.6827C70.0347 47.0064 70.3619 46.1357 70.3594 45.2348V44.729C70.3617 44.0407 70.1711 43.3656 69.8093 42.7802C69.4474 42.1947 68.9288 41.7224 68.3122 41.4167C67.7976 41.161 67.2308 41.0279 66.6562 41.0279C66.0816 41.0279 65.5148 41.161 65.0002 41.4167C64.3835 41.7224 63.8649 42.1948 63.5031 42.7802C63.1413 43.3657 62.9507 44.0409 62.9531 44.7291V45.2349C62.9506 46.1358 63.2778 47.0065 63.873 47.6828C63.2285 47.977 62.6825 48.4507 62.3004 49.0473C61.9183 49.6439 61.7164 50.3381 61.7188 51.0465V57.4503L62.9531 58.5643V65.4219ZM65.4219 44.729C65.4219 44.4016 65.5519 44.0876 65.7834 43.8561C66.0149 43.6246 66.3289 43.4946 66.6562 43.4946C66.9836 43.4946 67.2976 43.6246 67.5291 43.8561C67.7606 44.0876 67.8906 44.4016 67.8906 44.729V45.2348C67.8914 45.4816 67.8178 45.7231 67.6794 45.9275C67.541 46.1319 67.3442 46.2899 67.1147 46.3809L66.6562 46.5643L66.1978 46.3809C65.9683 46.2899 65.7715 46.1319 65.6331 45.9275C65.4947 45.7231 65.4211 45.4816 65.4219 45.2348V44.729ZM64.1875 51.0465C64.1867 50.7996 64.2603 50.5582 64.3987 50.3538C64.5371 50.1493 64.7339 49.9913 64.9635 49.9004L66.6562 49.2232L68.349 49.9004C68.5786 49.9913 68.7754 50.1493 68.9138 50.3538C69.0522 50.5582 69.1258 50.7996 69.125 51.0465V56.3528L67.8906 57.4668V62.9531H65.4219V57.467L64.1875 56.3529V51.0465ZM51.8438 33.3281C54.2851 33.3281 56.6716 32.6042 58.7016 31.2478C60.7315 29.8915 62.3136 27.9637 63.2479 25.7081C64.1822 23.4526 64.4266 20.9707 63.9503 18.5762C63.474 16.1818 62.2984 13.9823 60.5721 12.256C58.8458 10.5297 56.6464 9.3541 54.2519 8.87781C51.8574 8.40153 49.3755 8.64597 47.12 9.58024C44.8645 10.5145 42.9366 12.0966 41.5803 14.1266C40.2239 16.1565 39.5 18.543 39.5 20.9844C39.5037 24.257 40.8054 27.3946 43.1195 29.7087C45.4336 32.0228 48.5711 33.3245 51.8438 33.3281ZM53.0781 11.1893C54.6192 11.3823 56.093 11.9363 57.3796 12.8064C58.6661 13.6765 59.7291 14.838 60.482 16.1964C61.2349 17.5549 61.6564 19.0719 61.7123 20.624C61.7683 22.1761 61.457 23.7195 60.8038 25.1286L53.0781 20.3002V11.1893ZM59.4933 27.2211C58.5687 28.3578 57.4024 29.2741 56.0791 29.9035C54.7559 30.5329 53.309 30.8595 51.8438 30.8595C50.3785 30.8595 48.9316 30.5329 47.6084 29.9035C46.2851 29.2741 45.1188 28.3578 44.1942 27.2211L51.8438 22.44L59.4933 27.2211ZM41.9688 20.9844C41.9721 18.5803 42.8511 16.2598 44.4415 14.457C46.0318 12.6542 48.2245 11.4925 50.6094 11.1893V20.3002L42.8837 25.1286C42.2801 23.8305 41.9678 22.416 41.9688 20.9844ZM37.0312 30.8594H34.5625V13.5781H32.0938V30.8594H29.625V17.2813H27.1562V30.8594H24.6875V20.9844H22.2188V30.8594H19.75V24.6875H17.2812V30.8594H14.8125V33.3281H37.0312V30.8594ZM14.8125 9.87501H29.625V12.3438H14.8125V9.87501ZM14.8125 37.0313H17.2812V39.5H14.8125V37.0313ZM19.75 37.0313H29.625V39.5H19.75V37.0313ZM14.8125 44.4375H17.2812V46.9063H14.8125V44.4375ZM19.75 44.4375H29.625V46.9063H19.75V44.4375ZM14.8125 51.8438H17.2812V54.3125H14.8125V51.8438ZM19.75 51.8438H29.625V54.3125H19.75V51.8438ZM14.8125 59.25H17.2812V61.7188H14.8125V59.25ZM19.75 59.25H29.625V61.7188H19.75V59.25Z" fill="white"/>
</svg>
