<svg width="73" height="73" viewBox="0 0 73 73" fill="none" xmlns="http://www.w3.org/2000/svg">
<g clip-path="url(#clip0_31_2)">
<path d="M69.5713 52.4745C69.2688 52.4745 68.9786 52.3543 68.7647 52.1404C68.5508 51.9265 68.4307 51.6363 68.4307 51.3338C68.4297 50.7286 68.1888 50.1484 67.7608 49.7205C67.3327 49.2927 66.7524 49.052 66.1471 49.0514C65.8446 49.0514 65.5545 48.9313 65.3406 48.7174C65.1267 48.5034 65.0065 48.2133 65.0065 47.9108C65.0065 47.6083 65.1267 47.3182 65.3406 47.1043C65.5545 46.8904 65.8446 46.7702 66.1471 46.7702C67.357 46.7714 68.517 47.2524 69.3728 48.1077C70.2285 48.963 70.7101 50.1228 70.7119 51.3327C70.7119 51.6352 70.5917 51.9253 70.3778 52.1392C70.1639 52.3531 69.8738 52.4745 69.5713 52.4745Z" fill="black"/>
<path d="M66.1471 49.0514C65.8446 49.0514 65.5545 48.9313 65.3406 48.7174C65.1267 48.5034 65.0065 48.2133 65.0065 47.9108V44.4889C65.0065 44.1864 65.1267 43.8963 65.3406 43.6824C65.5545 43.4685 65.8446 43.3483 66.1471 43.3483C66.4496 43.3483 66.7398 43.4685 66.9537 43.6824C67.1676 43.8963 67.2878 44.1864 67.2878 44.4889V47.9108C67.2878 48.2133 67.1676 48.5034 66.9537 48.7174C66.7398 48.9313 66.4496 49.0514 66.1471 49.0514ZM53.6003 52.4733C53.2977 52.4733 53.0076 52.3531 52.7937 52.1392C52.5798 51.9253 52.4596 51.6352 52.4596 51.3327C52.462 49.2158 53.304 47.1864 54.8009 45.6895C56.2977 44.1927 58.3272 43.3507 60.444 43.3483C60.7465 43.3483 61.0366 43.4685 61.2505 43.6824C61.4645 43.8963 61.5846 44.1864 61.5846 44.4889C61.5846 44.7914 61.4645 45.0816 61.2505 45.2955C61.0366 45.5094 60.7465 45.6296 60.444 45.6296C58.932 45.6314 57.4824 46.2328 56.4133 47.302C55.3441 48.3711 54.7427 49.8207 54.7409 51.3327C54.7409 51.6352 54.6207 51.9253 54.4068 52.1392C54.1929 52.3531 53.9028 52.4733 53.6003 52.4733Z" fill="black"/>
<path d="M66.1471 45.6296H60.444C60.1415 45.6296 59.8514 45.5094 59.6375 45.2955C59.4235 45.0816 59.3034 44.7914 59.3034 44.4889C59.3034 44.1864 59.4235 43.8963 59.6375 43.6824C59.8514 43.4685 60.1415 43.3483 60.444 43.3483H66.1471C66.4496 43.3483 66.7398 43.4685 66.9537 43.6824C67.1676 43.8963 67.2877 44.1864 67.2877 44.4889C67.2877 44.7914 67.1676 45.0816 66.9537 45.2955C66.7398 45.5094 66.4496 45.6296 66.1471 45.6296ZM61.5846 62.7389C59.7551 62.7651 57.9525 62.2963 56.3675 61.3821C54.7825 60.468 53.474 59.1424 52.5805 57.5457C52.4474 57.2757 52.4264 56.964 52.5221 56.6786C52.6178 56.3932 52.8224 56.1572 53.0914 56.022C53.3604 55.8869 53.6719 55.8635 53.958 55.957C54.2441 56.0506 54.4816 56.2534 54.6188 56.5214C55.3422 57.7223 56.3638 58.7158 57.5844 59.4055C58.805 60.0952 60.1832 60.4576 61.5852 60.4576C62.9872 60.4576 64.3653 60.0952 65.586 59.4055C66.8066 58.7158 67.8281 57.7223 68.5516 56.5214C68.6887 56.2534 68.9263 56.0506 69.2124 55.957C69.4985 55.8635 69.81 55.8869 70.079 56.022C70.348 56.1572 70.5526 56.3932 70.6483 56.6786C70.744 56.964 70.723 57.2757 70.5899 57.5457C69.6963 59.1426 68.3876 60.4683 66.8024 61.3824C65.2172 62.2966 63.4144 62.7653 61.5846 62.7389Z" fill="black"/>
<path d="M53.6003 58.1764C53.2977 58.1764 53.0076 58.0563 52.7937 57.8424C52.5798 57.6284 52.4596 57.3383 52.4596 57.0358V51.3281C52.4596 51.0256 52.5798 50.7355 52.7937 50.5216C53.0076 50.3077 53.2977 50.1875 53.6003 50.1875C53.9028 50.1875 54.1929 50.3077 54.4068 50.5216C54.6207 50.7355 54.7409 51.0256 54.7409 51.3281V57.0358C54.7409 57.3383 54.6207 57.6284 54.4068 57.8424C54.1929 58.0563 53.9028 58.1764 53.6003 58.1764ZM69.569 58.1764C69.2665 58.1764 68.9764 58.0563 68.7625 57.8424C68.5485 57.6284 68.4284 57.3383 68.4284 57.0358V51.3281C68.4284 51.0256 68.5485 50.7355 68.7625 50.5216C68.9764 50.3077 69.2665 50.1875 69.569 50.1875C69.8715 50.1875 70.1616 50.3077 70.3755 50.5216C70.5895 50.7355 70.7096 51.0256 70.7096 51.3281V57.0358C70.7096 57.3383 70.5895 57.6284 70.3755 57.8424C70.1616 58.0563 69.8715 58.1764 69.569 58.1764ZM51.319 72.9989C51.0165 72.9989 50.7264 72.8787 50.5125 72.6648C50.2985 72.4509 50.1784 72.1607 50.1784 71.8582C50.1799 70.6488 50.6611 69.4893 51.5164 68.6341C52.3718 67.779 53.5314 67.2981 54.7409 67.2969C55.0434 67.2969 55.3335 67.417 55.5474 67.631C55.7613 67.8449 55.8815 68.135 55.8815 68.4375C55.8815 68.74 55.7613 69.0301 55.5474 69.244C55.3335 69.458 55.0434 69.5781 54.7409 69.5781C54.1362 69.5787 53.5565 69.8191 53.1289 70.2466C52.7012 70.674 52.4605 71.2536 52.4596 71.8582C52.4596 72.1607 52.3395 72.4509 52.1255 72.6648C51.9116 72.8787 51.6215 72.9989 51.319 72.9989Z" fill="black"/>
<path d="M58.1628 69.5838H54.7409C54.4384 69.5838 54.1482 69.4637 53.9343 69.2497C53.7204 69.0358 53.6003 68.7457 53.6003 68.4432C53.6003 68.1407 53.7204 67.8506 53.9343 67.6367C54.1482 67.4228 54.4384 67.3026 54.7409 67.3026H58.1628C58.4653 67.3026 58.7554 67.4228 58.9693 67.6367C59.1832 67.8506 59.3034 68.1407 59.3034 68.4432C59.3034 68.7457 59.1832 69.0358 58.9693 69.2497C58.7554 69.4637 58.4653 69.5838 58.1628 69.5838ZM71.8503 72.9989C71.5477 72.9989 71.2576 72.8787 71.0437 72.6648C70.8298 72.4509 70.7096 72.1607 70.7096 71.8582C70.7087 71.2536 70.468 70.674 70.0404 70.2466C69.6127 69.8191 69.033 69.5787 68.4284 69.5781C68.1259 69.5781 67.8357 69.458 67.6218 69.244C67.4079 69.0301 67.2878 68.74 67.2878 68.4375C67.2878 68.135 67.4079 67.8449 67.6218 67.631C67.8357 67.417 68.1259 67.2969 68.4284 67.2969C69.6379 67.2981 70.7975 67.779 71.6528 68.6341C72.5082 69.4893 72.9894 70.6488 72.9909 71.8582C72.9909 72.1607 72.8707 72.4509 72.6568 72.6648C72.4429 72.8787 72.1528 72.9989 71.8503 72.9989Z" fill="black"/>
<path d="M68.4284 69.5838H65.0065C64.704 69.5838 64.4139 69.4636 64.2 69.2497C63.986 69.0358 63.8659 68.7457 63.8659 68.4432C63.8659 68.1407 63.986 67.8506 64.2 67.6367C64.4139 67.4227 64.704 67.3026 65.0065 67.3026H68.4284C68.7309 67.3026 69.021 67.4227 69.2349 67.6367C69.4488 67.8506 69.569 68.1407 69.569 68.4432C69.569 68.7457 69.4488 69.0358 69.2349 69.2497C69.021 69.4636 68.7309 69.5838 68.4284 69.5838ZM58.1628 69.5838C57.8602 69.5838 57.5701 69.4636 57.3562 69.2497C57.1423 69.0358 57.0221 68.7457 57.0221 68.4432V64.24C57.0221 63.9375 57.1423 63.6474 57.3562 63.4334C57.5701 63.2195 57.8602 63.0994 58.1628 63.0994C58.4653 63.0994 58.7554 63.2195 58.9693 63.4334C59.1832 63.6474 59.3034 63.9375 59.3034 64.24V68.4421C59.3034 68.7446 59.1832 69.0347 58.9693 69.2486C58.7554 69.4625 58.4653 69.5838 58.1628 69.5838Z" fill="black"/>
<path d="M65.0065 69.577C64.704 69.577 64.4139 69.4568 64.2 69.2429C63.986 69.029 63.8659 68.7389 63.8659 68.4364V64.2411C63.8659 63.9386 63.986 63.6485 64.2 63.4346C64.4139 63.2207 64.704 63.1005 65.0065 63.1005C65.309 63.1005 65.5991 63.2207 65.813 63.4346C66.027 63.6485 66.1471 63.9386 66.1471 64.2411V68.4375C66.1471 68.74 66.027 69.0301 65.813 69.2441C65.5991 69.458 65.309 69.577 65.0065 69.577Z" fill="black"/>
<path d="M61.5846 66.1517C59.1659 66.1493 56.8468 65.1876 55.1362 63.4776C53.4255 61.7676 52.463 59.4489 52.4596 57.0301C52.4596 56.7276 52.5798 56.4375 52.7937 56.2236C53.0076 56.0097 53.2977 55.8895 53.6003 55.8895C53.9028 55.8895 54.1929 56.0097 54.4068 56.2236C54.6207 56.4375 54.7409 56.7276 54.7409 57.0301C54.7409 58.8452 55.4619 60.5859 56.7454 61.8694C58.0288 63.1528 59.7696 63.8739 61.5846 63.8739C63.3997 63.8739 65.1404 63.1528 66.4239 61.8694C67.7073 60.5859 68.4284 58.8452 68.4284 57.0301C68.4284 56.7276 68.5485 56.4375 68.7625 56.2236C68.9764 56.0097 69.2665 55.8895 69.569 55.8895C69.8715 55.8895 70.1616 56.0097 70.3756 56.2236C70.5895 56.4375 70.7096 56.7276 70.7096 57.0301C70.7063 59.4489 69.7438 61.7676 68.0331 63.4776C66.3225 65.1876 64.0034 66.1493 61.5846 66.1517ZM65.0065 69.577H58.1628C57.8602 69.577 57.5701 69.4568 57.3562 69.2429C57.1423 69.029 57.0221 68.7389 57.0221 68.4364C57.0221 68.1338 57.1423 67.8437 57.3562 67.6298C57.5701 67.4159 57.8602 67.2957 58.1628 67.2957H65.0065C65.309 67.2957 65.5991 67.4159 65.813 67.6298C66.027 67.8437 66.1471 68.1338 66.1471 68.4364C66.1471 68.7389 66.027 69.029 65.813 69.2429C65.5991 69.4568 65.309 69.577 65.0065 69.577ZM11.3971 62.7389C9.56758 62.7651 7.76497 62.2963 6.17998 61.3821C4.59498 60.468 3.28653 59.1424 2.39303 57.5457C2.2599 57.2757 2.23888 56.964 2.33458 56.6786C2.43027 56.3932 2.63491 56.1572 2.90388 56.022C3.17285 55.8869 3.48435 55.8635 3.77047 55.957C4.05659 56.0506 4.29414 56.2534 4.43133 56.5214C5.1349 57.7399 6.15212 58.7476 7.37718 59.4396C8.60223 60.1317 9.99035 60.4828 11.3971 60.4565C12.8041 60.483 14.1924 60.132 15.4177 59.4399C16.643 58.7478 17.6604 57.74 18.3641 56.5214C18.5012 56.2534 18.7388 56.0506 19.0249 55.957C19.311 55.8635 19.6225 55.8869 19.8915 56.022C20.1605 56.1572 20.3651 56.3932 20.4608 56.6786C20.5565 56.964 20.5355 57.2757 20.4024 57.5457C19.5088 59.1426 18.2001 60.4682 16.6149 61.3824C15.0297 62.2966 13.2269 62.7653 11.3971 62.7389Z" fill="black"/>
<path d="M3.41275 58.1764C3.11024 58.1764 2.82012 58.0563 2.60621 57.8424C2.3923 57.6284 2.27213 57.3383 2.27213 57.0358V52.4688C2.27213 52.1662 2.3923 51.8761 2.60621 51.6622C2.82012 51.4483 3.11024 51.3281 3.41275 51.3281C3.71526 51.3281 4.00539 51.4483 4.21929 51.6622C4.4332 51.8761 4.55338 52.1662 4.55338 52.4688V57.0358C4.55338 57.3383 4.4332 57.6284 4.21929 57.8424C4.00539 58.0563 3.71526 58.1764 3.41275 58.1764ZM19.3815 58.1764C19.079 58.1764 18.7889 58.0563 18.575 57.8424C18.361 57.6284 18.2409 57.3383 18.2409 57.0358V52.4688C18.2409 52.1662 18.361 51.8761 18.575 51.6622C18.7889 51.4483 19.079 51.3281 19.3815 51.3281C19.684 51.3281 19.9741 51.4483 20.188 51.6622C20.402 51.8761 20.5221 52.1662 20.5221 52.4688V57.0358C20.5221 57.3383 20.402 57.6284 20.188 57.8424C19.9741 58.0563 19.684 58.1764 19.3815 58.1764ZM1.1315 72.9989C0.828989 72.9989 0.538866 72.8787 0.324958 72.6648C0.111049 72.4509 -0.0091238 72.1607 -0.0091238 71.8582C-0.00761406 70.6488 0.473598 69.4893 1.32894 68.6341C2.18428 67.779 3.34389 67.2981 4.55338 67.2969C4.85589 67.2969 5.14601 67.417 5.35992 67.631C5.57383 67.8449 5.694 68.135 5.694 68.4375C5.694 68.74 5.57383 69.0301 5.35992 69.244C5.14601 69.458 4.85589 69.5781 4.55338 69.5781C3.94873 69.5787 3.36901 69.8191 2.94136 70.2466C2.5137 70.674 2.27303 71.2536 2.27213 71.8582C2.27213 72.1607 2.15195 72.4509 1.93804 72.6648C1.72414 72.8787 1.43401 72.9989 1.1315 72.9989Z" fill="black"/>
<path d="M7.97525 69.5838H4.55338C4.25086 69.5838 3.96074 69.4637 3.74683 69.2497C3.53292 69.0358 3.41275 68.7457 3.41275 68.4432C3.41275 68.1407 3.53292 67.8506 3.74683 67.6367C3.96074 67.4228 4.25086 67.3026 4.55338 67.3026H7.97525C8.27776 67.3026 8.56789 67.4228 8.78179 67.6367C8.9957 67.8506 9.11588 68.1407 9.11588 68.4432C9.11588 68.7457 8.9957 69.0358 8.78179 69.2497C8.56789 69.4637 8.27776 69.5838 7.97525 69.5838ZM21.6628 72.9989C21.3602 72.9989 21.0701 72.8787 20.8562 72.6648C20.6423 72.4509 20.5221 72.1607 20.5221 71.8582C20.5212 71.2536 20.2805 70.674 19.8529 70.2466C19.4252 69.8191 18.8455 69.5787 18.2409 69.5781C17.9384 69.5781 17.6482 69.458 17.4343 69.244C17.2204 69.0301 17.1003 68.74 17.1003 68.4375C17.1003 68.135 17.2204 67.8449 17.4343 67.631C17.6482 67.417 17.9384 67.2969 18.2409 67.2969C19.4504 67.2981 20.61 67.779 21.4653 68.6341C22.3207 69.4893 22.8019 70.6488 22.8034 71.8582C22.8034 72.1607 22.6832 72.4509 22.4693 72.6648C22.2554 72.8787 21.9653 72.9989 21.6628 72.9989Z" fill="black"/>
<path d="M18.2409 69.5838H14.819C14.5165 69.5838 14.2264 69.4636 14.0125 69.2497C13.7985 69.0358 13.6784 68.7457 13.6784 68.4432C13.6784 68.1407 13.7985 67.8506 14.0125 67.6367C14.2264 67.4227 14.5165 67.3026 14.819 67.3026H18.2409C18.5434 67.3026 18.8335 67.4227 19.0474 67.6367C19.2613 67.8506 19.3815 68.1407 19.3815 68.4432C19.3815 68.7457 19.2613 69.0358 19.0474 69.2497C18.8335 69.4636 18.5434 69.5838 18.2409 69.5838ZM7.97525 69.5838C7.67274 69.5838 7.38261 69.4636 7.16871 69.2497C6.9548 69.0358 6.83463 68.7457 6.83463 68.4432V64.24C6.83463 63.9375 6.9548 63.6474 7.16871 63.4334C7.38261 63.2195 7.67274 63.0994 7.97525 63.0994C8.27776 63.0994 8.56789 63.2195 8.78179 63.4334C8.9957 63.6474 9.11588 63.9375 9.11588 64.24V68.4421C9.11588 68.7446 8.9957 69.0347 8.78179 69.2486C8.56789 69.4625 8.27776 69.5838 7.97525 69.5838Z" fill="black"/>
<path d="M14.819 69.577C14.5165 69.577 14.2264 69.4568 14.0125 69.2429C13.7985 69.029 13.6784 68.7389 13.6784 68.4364V64.2411C13.6784 63.9386 13.7985 63.6485 14.0125 63.4346C14.2264 63.2207 14.5165 63.1005 14.819 63.1005C15.1215 63.1005 15.4116 63.2207 15.6255 63.4346C15.8395 63.6485 15.9596 63.9386 15.9596 64.2411V68.4375C15.9596 68.74 15.8395 69.0301 15.6255 69.2441C15.4116 69.458 15.1215 69.577 14.819 69.577Z" fill="black"/>
<path d="M11.3971 66.1517C8.97836 66.1493 6.6593 65.1876 4.94865 63.4776C3.238 61.7676 2.27545 59.4489 2.27213 57.0301C2.27213 56.7276 2.3923 56.4375 2.60621 56.2236C2.82012 56.0097 3.11024 55.8895 3.41275 55.8895C3.71526 55.8895 4.00539 56.0097 4.21929 56.2236C4.4332 56.4375 4.55338 56.7276 4.55338 57.0301C4.55338 58.8452 5.27441 60.5859 6.55786 61.8694C7.84132 63.1528 9.58205 63.8739 11.3971 63.8739C13.2122 63.8739 14.9529 63.1528 16.2364 61.8694C17.5198 60.5859 18.2409 58.8452 18.2409 57.0301C18.2409 56.7276 18.361 56.4375 18.575 56.2236C18.7889 56.0097 19.079 55.8895 19.3815 55.8895C19.684 55.8895 19.9741 56.0097 20.188 56.2236C20.402 56.4375 20.5221 56.7276 20.5221 57.0301C20.5188 59.4489 19.5562 61.7676 17.8456 63.4776C16.135 65.1876 13.8159 66.1493 11.3971 66.1517ZM19.3815 53.6094C19.079 53.6094 18.7889 53.4892 18.575 53.2753C18.361 53.0614 18.2409 52.7713 18.2409 52.4688C18.2409 50.6537 17.5198 48.9129 16.2364 47.6295C14.9529 46.346 13.2122 45.625 11.3971 45.625C9.58205 45.625 7.84132 46.346 6.55786 47.6295C5.27441 48.9129 4.55338 50.6537 4.55338 52.4688C4.55338 52.7713 4.4332 53.0614 4.21929 53.2753C4.00539 53.4892 3.71526 53.6094 3.41275 53.6094C3.11024 53.6094 2.82012 53.4892 2.60621 53.2753C2.3923 53.0614 2.27213 52.7713 2.27213 52.4688C2.27213 50.0486 3.23351 47.7277 4.94478 46.0164C6.65605 44.3051 8.97703 43.3437 11.3971 43.3438C13.8172 43.3437 16.1382 44.3051 17.8495 46.0164C19.5607 47.7277 20.5221 50.0486 20.5221 52.4688C20.5221 52.7713 20.402 53.0614 20.188 53.2753C19.9741 53.4892 19.684 53.6094 19.3815 53.6094ZM14.819 69.577H7.97525C7.67274 69.577 7.38262 69.4568 7.16871 69.2429C6.9548 69.029 6.83463 68.7389 6.83463 68.4364C6.83463 68.1338 6.9548 67.8437 7.16871 67.6298C7.38262 67.4159 7.67274 67.2957 7.97525 67.2957H14.819C15.1215 67.2957 15.4116 67.4159 15.6255 67.6298C15.8395 67.8437 15.9596 68.1338 15.9596 68.4364C15.9596 68.7389 15.8395 69.029 15.6255 69.2429C15.4116 69.4568 15.1215 69.577 14.819 69.577ZM46.7565 66.1608C46.454 66.1608 46.1639 66.0406 45.95 65.8267C45.736 65.6128 45.6159 65.3227 45.6159 65.0202V53.6618C45.6159 53.3593 45.736 53.0692 45.95 52.8553C46.1639 52.6414 46.454 52.5212 46.7565 52.5212C47.059 52.5212 47.3491 52.6414 47.563 52.8553C47.777 53.0692 47.8971 53.3593 47.8971 53.6618V65.0202C47.8971 65.3227 47.777 65.6128 47.563 65.8267C47.3491 66.0406 47.059 66.1608 46.7565 66.1608Z" fill="black"/>
<path d="M46.7565 66.1608H26.2253C25.9227 66.1608 25.6326 66.0406 25.4187 65.8267C25.2048 65.6128 25.0846 65.3227 25.0846 65.0202C25.0846 64.7177 25.2048 64.4276 25.4187 64.2136C25.6326 63.9997 25.9227 63.8796 26.2253 63.8796H46.7565C47.059 63.8796 47.3491 63.9997 47.563 64.2136C47.777 64.4276 47.8971 64.7177 47.8971 65.0202C47.8971 65.3227 47.777 65.6128 47.563 65.8267C47.3491 66.0406 47.059 66.1608 46.7565 66.1608Z" fill="black"/>
<path d="M26.2253 66.1608C25.9227 66.1608 25.6326 66.0406 25.4187 65.8267C25.2048 65.6128 25.0846 65.3227 25.0846 65.0202V53.6619C25.0846 53.3593 25.2048 53.0692 25.4187 52.8553C25.6326 52.6414 25.9227 52.5212 26.2253 52.5212C26.5278 52.5212 26.8179 52.6414 27.0318 52.8553C27.2457 53.0692 27.3659 53.3593 27.3659 53.6619V65.0202C27.3659 65.3227 27.2457 65.6128 27.0318 65.8267C26.8179 66.0406 26.5278 66.1608 26.2253 66.1608Z" fill="black"/>
<path d="M46.7565 54.8025C46.454 54.8025 46.1639 54.6823 45.95 54.4684C45.736 54.2545 45.6159 53.9644 45.6159 53.6618C45.6159 51.2417 44.6545 48.9208 42.9432 47.2095C41.232 45.4982 38.911 44.5368 36.4909 44.5368C34.0708 44.5368 31.7498 45.4982 30.0385 47.2095C28.3273 48.9208 27.3659 51.2417 27.3659 53.6618C27.3659 53.9644 27.2457 54.2545 27.0318 54.4684C26.8179 54.6823 26.5278 54.8025 26.2253 54.8025C25.9227 54.8025 25.6326 54.6823 25.4187 54.4684C25.2048 54.2545 25.0846 53.9644 25.0846 53.6618C25.0846 50.6367 26.2864 47.7355 28.4254 45.5964C30.5645 43.4573 33.4657 42.2556 36.4909 42.2556C39.516 42.2556 42.4172 43.4573 44.5563 45.5964C46.6954 47.7355 47.8971 50.6367 47.8971 53.6618C47.8971 53.9644 47.777 54.2545 47.563 54.4684C47.3491 54.6823 47.059 54.8025 46.7565 54.8025ZM26.2253 72.9989C25.9227 72.9989 25.6326 72.8787 25.4187 72.6648C25.2048 72.4509 25.0846 72.1608 25.0846 71.8582C25.0861 70.6488 25.5673 69.4893 26.4227 68.6341C27.278 67.779 28.4376 67.2981 29.6471 67.2969C29.9496 67.2969 30.2398 67.4171 30.4537 67.631C30.6676 67.8449 30.7878 68.135 30.7878 68.4375C30.7878 68.74 30.6676 69.0301 30.4537 69.244C30.2398 69.458 29.9496 69.5781 29.6471 69.5781C29.0425 69.5787 28.4628 69.8191 28.0351 70.2466C27.6075 70.674 27.3668 71.2536 27.3659 71.8582C27.3659 72.1608 27.2457 72.4509 27.0318 72.6648C26.8179 72.8787 26.5278 72.9989 26.2253 72.9989Z" fill="black"/>
<path d="M33.069 69.5838H29.6471C29.3446 69.5838 29.0545 69.4637 28.8406 69.2497C28.6267 69.0358 28.5065 68.7457 28.5065 68.4432C28.5065 68.1407 28.6267 67.8506 28.8406 67.6367C29.0545 67.4228 29.3446 67.3026 29.6471 67.3026H33.069C33.3715 67.3026 33.6616 67.4228 33.8755 67.6367C34.0895 67.8506 34.2096 68.1407 34.2096 68.4432C34.2096 68.7457 34.0895 69.0358 33.8755 69.2497C33.6616 69.4637 33.3715 69.5838 33.069 69.5838ZM46.7565 72.9989C46.454 72.9989 46.1639 72.8787 45.95 72.6648C45.736 72.4509 45.6159 72.1607 45.6159 71.8582C45.615 71.2536 45.3743 70.674 44.9466 70.2466C44.519 69.8191 43.9393 69.5787 43.3346 69.5781C43.0321 69.5781 42.742 69.458 42.5281 69.244C42.3142 69.0301 42.194 68.74 42.194 68.4375C42.194 68.135 42.3142 67.8449 42.5281 67.631C42.742 67.417 43.0321 67.2969 43.3346 67.2969C44.5441 67.2981 45.7037 67.779 46.5591 68.6341C47.4144 69.4893 47.8956 70.6488 47.8971 71.8582C47.8971 72.1607 47.777 72.4509 47.563 72.6648C47.3491 72.8787 47.059 72.9989 46.7565 72.9989Z" fill="black"/>
<path d="M43.3346 69.5838H39.9128C39.6102 69.5838 39.3201 69.4637 39.1062 69.2497C38.8923 69.0358 38.7721 68.7457 38.7721 68.4432C38.7721 68.1407 38.8923 67.8506 39.1062 67.6367C39.3201 67.4227 39.6102 67.3026 39.9128 67.3026H43.3346C43.6371 67.3026 43.9273 67.4227 44.1412 67.6367C44.3551 67.8506 44.4753 68.1407 44.4753 68.4432C44.4753 68.7457 44.3551 69.0358 44.1412 69.2497C43.9273 69.4637 43.6371 69.5838 43.3346 69.5838ZM33.069 69.5838H33.0656C32.9158 69.5834 32.7676 69.5534 32.6293 69.4957C32.4911 69.438 32.3656 69.3536 32.26 69.2473C32.1544 69.1411 32.0708 69.0151 32.0139 68.8765C31.957 68.738 31.9279 68.5896 31.9284 68.4398L31.9375 65.0168C31.9384 64.7148 32.059 64.4256 32.2728 64.2124C32.4866 63.9993 32.7762 63.8796 33.0781 63.8796H33.0815C33.2313 63.88 33.3796 63.91 33.5178 63.9677C33.656 64.0254 33.7815 64.1098 33.8871 64.2161C33.9927 64.3223 34.0763 64.4483 34.1332 64.5868C34.1901 64.7254 34.2192 64.8738 34.2188 65.0236L34.2096 68.4455C34.209 68.7476 34.0886 69.0371 33.8747 69.2506C33.6609 69.464 33.3711 69.5838 33.069 69.5838Z" fill="black"/>
<path d="M39.9128 69.577C39.6135 69.5649 39.3299 69.4403 39.1185 69.2283C38.907 69.0162 38.7834 68.7322 38.7721 68.4329L38.7813 65.0168C38.7822 64.7149 38.9027 64.4256 39.1165 64.2124C39.3304 63.9993 39.62 63.8796 39.9219 63.8796C40.0728 63.8764 40.2228 63.9039 40.3628 63.9604C40.5029 64.0168 40.63 64.101 40.7366 64.2079C40.8432 64.3148 40.927 64.4422 40.983 64.5824C41.039 64.7226 41.0661 64.8727 41.0625 65.0236L41.0534 68.4398C41.0525 68.7417 40.9319 69.031 40.7181 69.2441C40.5043 69.4573 40.2147 69.577 39.9128 69.577ZM36.4909 70.7176C36.3683 70.7174 36.2466 70.6973 36.1304 70.6583L32.7086 69.5177C32.4312 69.4146 32.2047 69.2078 32.077 68.9409C31.9492 68.674 31.9302 68.3679 32.0239 68.0873C32.1176 67.8066 32.3167 67.5733 32.5792 67.4367C32.8417 67.3001 33.1469 67.2708 33.4306 67.3551L36.8525 68.4957C37.1089 68.5818 37.3264 68.7562 37.4661 68.9878C37.6058 69.2195 37.6587 69.4932 37.6152 69.7602C37.5718 70.0272 37.4349 70.2701 37.2289 70.4454C37.023 70.6208 36.7614 70.7173 36.4909 70.7176Z" fill="black"/>
<path d="M36.4909 70.7176C36.2205 70.717 35.9591 70.6203 35.7533 70.4449C35.5476 70.2694 35.4108 70.0265 35.3675 69.7596C35.3242 69.4927 35.3772 69.2191 35.5169 68.9876C35.6567 68.7561 35.8741 68.5817 36.1304 68.4957L39.5523 67.355C39.6957 67.3018 39.8484 67.2779 40.0013 67.2848C40.1541 67.2917 40.304 67.3293 40.442 67.3954C40.58 67.4615 40.7034 67.5546 40.8046 67.6693C40.9059 67.784 40.9831 67.9179 41.0315 68.063C41.08 68.2082 41.0987 68.3616 41.0867 68.5141C41.0746 68.6666 41.032 68.8152 40.9613 68.9509C40.8907 69.0866 40.7935 69.2067 40.6754 69.3041C40.5574 69.4015 40.421 69.4741 40.2743 69.5177L36.8525 70.6583C36.7359 70.6975 36.6138 70.7175 36.4909 70.7176ZM28.5065 14.8293C28.204 14.8293 27.9139 14.7091 27.7 14.4952C27.486 14.2813 27.3659 13.9911 27.3659 13.6886V10.4185C27.3659 10.116 27.486 9.82583 27.7 9.61192C27.9139 9.39801 28.204 9.27784 28.5065 9.27784C28.809 9.27784 29.0991 9.39801 29.313 9.61192C29.527 9.82583 29.6471 10.116 29.6471 10.4185V13.6875C29.6471 13.99 29.527 14.2801 29.313 14.494C29.0991 14.7079 28.809 14.8281 28.5065 14.8281V14.8293ZM44.4753 14.8293C44.1727 14.8293 43.8826 14.7091 43.6687 14.4952C43.4548 14.2813 43.3346 13.9911 43.3346 13.6886V9.69645C43.3346 9.39394 43.4548 9.10381 43.6687 8.88991C43.8826 8.676 44.1727 8.55582 44.4753 8.55582C44.7778 8.55582 45.0679 8.676 45.2818 8.88991C45.4957 9.10381 45.6159 9.39394 45.6159 9.69645V13.6886C45.6159 13.9911 45.4957 14.2813 45.2818 14.4952C45.0679 14.7091 44.7778 14.8293 44.4753 14.8293Z" fill="black"/>
<path d="M44.4753 10.8371C44.1727 10.8371 43.8826 10.7169 43.6687 10.503C43.4548 10.2891 43.3346 9.99896 43.3346 9.69645C43.3346 8.72282 43.1429 7.75873 42.7703 6.85921C42.3977 5.95969 41.8516 5.14237 41.1631 4.45392C40.4746 3.76546 39.6573 3.21934 38.7578 2.84675C37.8583 2.47416 36.8942 2.28239 35.9206 2.28239C34.9469 2.28239 33.9828 2.47416 33.0833 2.84675C32.1838 3.21934 31.3665 3.76546 30.678 4.45392C29.9896 5.14237 29.4435 5.95969 29.0709 6.85921C28.6983 7.75873 28.5065 8.72282 28.5065 9.69645C28.5065 9.99896 28.3863 10.2891 28.1724 10.503C27.9585 10.7169 27.6684 10.8371 27.3659 10.8371C27.0634 10.8371 26.7732 10.7169 26.5593 10.503C26.3454 10.2891 26.2253 9.99896 26.2253 9.69645C26.2253 7.12509 27.2467 4.65905 29.0649 2.84083C30.8832 1.0226 33.3492 0.00113678 35.9206 0.00113678C38.4919 0.00113678 40.958 1.0226 42.7762 2.84083C44.5944 4.65905 45.6159 7.12509 45.6159 9.69645C45.6159 9.99896 45.4957 10.2891 45.2818 10.503C45.0679 10.7169 44.7778 10.8371 44.4753 10.8371Z" fill="black"/>
<path d="M44.4764 12.4009C44.301 12.4011 44.128 12.3608 43.9707 12.2833C43.8135 12.2057 43.6762 12.093 43.5696 11.9537C41.3682 9.07937 40.7682 9.31662 38.5349 10.1995C34.9605 11.7368 31.0033 12.1513 27.1879 11.388C27.0355 11.3699 26.8883 11.3212 26.7551 11.2449C26.6219 11.1686 26.5055 11.0662 26.4129 10.9438C26.3202 10.8214 26.2532 10.6815 26.2159 10.5327C26.1786 10.3838 26.1717 10.2289 26.1957 10.0772C26.2196 9.92562 26.274 9.7804 26.3554 9.65028C26.4368 9.52015 26.5437 9.4078 26.6695 9.31995C26.7954 9.2321 26.9377 9.17056 27.088 9.13902C27.2382 9.10749 27.3932 9.10659 27.5438 9.1364C30.9561 9.83273 34.4999 9.46361 37.6954 8.07904C40.4454 6.98975 42.2887 6.53007 45.3809 10.5656C45.5109 10.7345 45.591 10.9364 45.6121 11.1484C45.6332 11.3605 45.5945 11.5742 45.5003 11.7654C45.4062 11.9566 45.2603 12.1175 45.0793 12.23C44.8984 12.3426 44.6895 12.4021 44.4764 12.402V12.4009Z" fill="black"/>
<path d="M39.9116 9.67137C39.7182 9.67098 39.528 9.62139 39.359 9.52727C39.1899 9.43316 39.0476 9.29759 38.9454 9.13334C38.8432 8.96908 38.7845 8.78153 38.7747 8.58832C38.7649 8.39511 38.8045 8.20259 38.8896 8.02887L41.1709 3.38196C41.3093 3.11966 41.5445 2.92161 41.8266 2.82982C42.1086 2.73803 42.4153 2.75972 42.6817 2.89028C42.948 3.02085 43.153 3.25002 43.2532 3.5292C43.3533 3.80838 43.3408 4.1156 43.2183 4.38571L40.937 9.03262C40.8431 9.22441 40.6971 9.38597 40.5158 9.4989C40.3345 9.61182 40.1252 9.67158 39.9116 9.67137ZM26.2253 28.5122C25.9227 28.5122 25.6326 28.392 25.4187 28.1781C25.2048 27.9642 25.0846 27.6741 25.0846 27.3716C25.0858 26.1619 25.5669 25.0021 26.4223 24.1467C27.2777 23.2914 28.4374 22.8103 29.6471 22.8091C29.9496 22.8091 30.2398 22.9293 30.4537 23.1432C30.6676 23.3571 30.7877 23.6472 30.7877 23.9497C30.7877 24.2522 30.6676 24.5423 30.4537 24.7563C30.2398 24.9702 29.9496 25.0903 29.6471 25.0903C29.0424 25.0912 28.4627 25.3319 28.035 25.7595C27.6074 26.1871 27.3668 26.7668 27.3659 27.3716C27.3659 27.6741 27.2457 27.9642 27.0318 28.1781C26.8179 28.392 26.5278 28.5122 26.2253 28.5122Z" fill="black"/>
<path d="M33.069 25.0983H29.6471C29.3446 25.0983 29.0545 24.9781 28.8406 24.7642C28.6267 24.5503 28.5065 24.2602 28.5065 23.9577C28.5065 23.6552 28.6267 23.3651 28.8406 23.1511C29.0545 22.9372 29.3446 22.8171 29.6471 22.8171H33.069C33.3715 22.8171 33.6616 22.9372 33.8755 23.1511C34.0895 23.3651 34.2096 23.6552 34.2096 23.9577C34.2096 24.2602 34.0895 24.5503 33.8755 24.7642C33.6616 24.9781 33.3715 25.0983 33.069 25.0983ZM26.2253 30.7969C25.9227 30.7969 25.6326 30.6767 25.4187 30.4628C25.2048 30.2489 25.0846 29.9588 25.0846 29.6563V27.3716C25.0846 27.0691 25.2048 26.7789 25.4187 26.565C25.6326 26.3511 25.9227 26.231 26.2253 26.231C26.5278 26.231 26.8179 26.3511 27.0318 26.565C27.2457 26.7789 27.3659 27.0691 27.3659 27.3716V29.6563C27.3659 29.9588 27.2457 30.2489 27.0318 30.4628C26.8179 30.6767 26.5278 30.7969 26.2253 30.7969ZM46.7565 28.5122C46.454 28.5122 46.1639 28.392 45.95 28.1781C45.736 27.9642 45.6159 27.6741 45.6159 27.3716C45.615 26.7668 45.3743 26.1871 44.9467 25.7595C44.5191 25.3319 43.9394 25.0912 43.3346 25.0903C43.0321 25.0903 42.742 24.9702 42.5281 24.7563C42.3142 24.5423 42.194 24.2522 42.194 23.9497C42.194 23.6472 42.3142 23.3571 42.5281 23.1432C42.742 22.9293 43.0321 22.8091 43.3346 22.8091C44.5443 22.8103 45.7041 23.2914 46.5595 24.1467C47.4148 25.0021 47.8959 26.1619 47.8971 27.3716C47.8971 27.6741 47.777 27.9642 47.563 28.1781C47.3491 28.392 47.059 28.5122 46.7565 28.5122Z" fill="black"/>
<path d="M43.3346 25.0983H39.9128C39.6102 25.0983 39.3201 24.9781 39.1062 24.7642C38.8923 24.5503 38.7721 24.2602 38.7721 23.9577C38.7721 23.6552 38.8923 23.3651 39.1062 23.1511C39.3201 22.9372 39.6102 22.8171 39.9128 22.8171H43.3346C43.6371 22.8171 43.9273 22.9372 44.1412 23.1511C44.3551 23.3651 44.4753 23.6552 44.4753 23.9577C44.4753 24.2602 44.3551 24.5503 44.1412 24.7642C43.9273 24.9781 43.6371 25.0983 43.3346 25.0983ZM46.7565 30.7969C46.454 30.7969 46.1639 30.6767 45.95 30.4628C45.736 30.2489 45.6159 29.9588 45.6159 29.6562V27.3716C45.6159 27.0691 45.736 26.7789 45.95 26.565C46.1639 26.3511 46.454 26.231 46.7565 26.231C47.059 26.231 47.3491 26.3511 47.563 26.565C47.777 26.7789 47.8971 27.0691 47.8971 27.3716V29.6562C47.8971 29.9588 47.777 30.2489 47.563 30.4628C47.3491 30.6767 47.059 30.7969 46.7565 30.7969ZM33.069 25.0983C32.7665 25.0983 32.4764 24.9781 32.2625 24.7642C32.0485 24.5503 31.9284 24.2602 31.9284 23.9577V20.8962C31.9284 20.5937 32.0485 20.3036 32.2625 20.0897C32.4764 19.8758 32.7665 19.7556 33.069 19.7556C33.3715 19.7556 33.6616 19.8758 33.8755 20.0897C34.0895 20.3036 34.2096 20.5937 34.2096 20.8962V23.9577C34.2096 24.2602 34.0895 24.5503 33.8755 24.7642C33.6616 24.9781 33.3715 25.0983 33.069 25.0983Z" fill="black"/>
<path d="M39.9128 25.0903C39.6102 25.0903 39.3201 24.9702 39.1062 24.7562C38.8923 24.5423 38.7721 24.2522 38.7721 23.9497V20.8962C38.7721 20.5937 38.8923 20.3036 39.1062 20.0897C39.3201 19.8758 39.6102 19.7556 39.9128 19.7556C40.2153 19.7556 40.5054 19.8758 40.7193 20.0897C40.9332 20.3036 41.0534 20.5937 41.0534 20.8962V23.9497C41.0534 24.2522 40.9332 24.5423 40.7193 24.7562C40.5054 24.9702 40.2153 25.0903 39.9128 25.0903Z" fill="black"/>
<path d="M36.4909 22.8045C34.0722 22.8024 31.7531 21.841 30.0425 20.1311C28.3318 18.4213 27.3692 16.1027 27.3659 13.6841C27.3659 13.3816 27.486 13.0914 27.7 12.8775C27.9139 12.6636 28.204 12.5435 28.5065 12.5435C28.809 12.5435 29.0991 12.6636 29.313 12.8775C29.527 13.0914 29.6471 13.3816 29.6471 13.6841C29.6471 15.4992 30.3682 17.2399 31.6516 18.5233C32.9351 19.8068 34.6758 20.5278 36.4909 20.5278C38.306 20.5278 40.0467 19.8068 41.3301 18.5233C42.6136 17.2399 43.3346 15.4992 43.3346 13.6841C43.3346 13.3816 43.4548 13.0914 43.6687 12.8775C43.8826 12.6636 44.1727 12.5435 44.4753 12.5435C44.7778 12.5435 45.0679 12.6636 45.2818 12.8775C45.4957 13.0914 45.6159 13.3816 45.6159 13.6841C45.6126 16.1027 44.65 18.4213 42.9393 20.1311C41.2286 21.841 38.9095 22.8024 36.4909 22.8045ZM51.3395 34.2199H21.6787C21.3762 34.2199 21.0861 34.0997 20.8722 33.8858C20.6583 33.6719 20.5381 33.3818 20.5381 33.0793V29.6597C20.5381 29.3572 20.6583 29.067 20.8722 28.8531C21.0861 28.6392 21.3762 28.5191 21.6787 28.5191H51.3395C51.642 28.5191 51.9322 28.6392 52.1461 28.8531C52.36 29.067 52.4802 29.3572 52.4802 29.6597V33.0793C52.4802 33.3818 52.36 33.6719 52.1461 33.8858C51.9322 34.0997 51.642 34.2199 51.3395 34.2199ZM22.8182 31.9386H50.1989V30.8003H22.8182V31.9386Z" fill="black"/>
<path d="M22.8011 57.0461C22.4986 57.0461 22.2085 56.9259 21.9945 56.712C21.7806 56.4981 21.6605 56.208 21.6605 55.9055V33.0587C21.6605 32.7562 21.7806 32.4661 21.9945 32.2522C22.2085 32.0383 22.4986 31.9181 22.8011 31.9181C23.1036 31.9181 23.3937 32.0383 23.6076 32.2522C23.8215 32.4661 23.9417 32.7562 23.9417 33.0587V55.9055C23.9417 56.208 23.8215 56.4981 23.6076 56.712C23.3937 56.9259 23.1036 57.0461 22.8011 57.0461ZM50.1989 58.1878C49.8964 58.1878 49.6063 58.0677 49.3924 57.8538C49.1785 57.6399 49.0583 57.3497 49.0583 57.0472V33.0599C49.0583 32.7574 49.1785 32.4672 49.3924 32.2533C49.6063 32.0394 49.8964 31.9192 50.1989 31.9192C50.5014 31.9192 50.7915 32.0394 51.0054 32.2533C51.2194 32.4672 51.3395 32.7574 51.3395 33.0599V57.0472C51.3395 57.3497 51.2194 57.6399 51.0054 57.8538C50.7915 58.0677 50.5014 58.1878 50.1989 58.1878ZM3.41275 58.1776H1.13264C0.830127 58.1776 0.540004 58.0574 0.326096 57.8435C0.112187 57.6296 -0.00798583 57.3395 -0.00798583 57.037C-0.00798583 56.7344 0.112187 56.4443 0.326096 56.2304C0.540004 56.0165 0.830127 55.8963 1.13264 55.8963H3.41389C3.7164 55.8963 4.00652 56.0165 4.22043 56.2304C4.43434 56.4443 4.55451 56.7344 4.55451 57.037C4.55451 57.3395 4.43434 57.6296 4.22043 57.8435C4.00652 58.0574 3.71526 58.1776 3.41275 58.1776Z" fill="black"/>
<path d="M26.2253 58.1799H19.3815C19.079 58.1799 18.7889 58.0597 18.575 57.8458C18.361 57.6319 18.2409 57.3417 18.2409 57.0392C18.2409 56.7367 18.361 56.4466 18.575 56.2327C18.7889 56.0188 19.079 55.8986 19.3815 55.8986H26.2253C26.5278 55.8986 26.8179 56.0188 27.0318 56.2327C27.2457 56.4466 27.3659 56.7367 27.3659 57.0392C27.3659 57.3417 27.2457 57.6319 27.0318 57.8458C26.8179 58.0597 26.5278 58.1799 26.2253 58.1799ZM53.6002 58.1799H46.7565C46.454 58.1799 46.1639 58.0597 45.95 57.8458C45.736 57.6319 45.6159 57.3417 45.6159 57.0392C45.6159 56.7367 45.736 56.4466 45.95 56.2327C46.1639 56.0188 46.454 55.8986 46.7565 55.8986H53.6002C53.9028 55.8986 54.1929 56.0188 54.4068 56.2327C54.6207 56.4466 54.7409 56.7367 54.7409 57.0392C54.7409 57.3417 54.6207 57.6319 54.4068 57.8458C54.1929 58.0597 53.9028 58.1799 53.6002 58.1799ZM71.8685 58.1776H69.569C69.2665 58.1776 68.9764 58.0574 68.7625 57.8435C68.5485 57.6296 68.4284 57.3395 68.4284 57.0369C68.4284 56.7344 68.5485 56.4443 68.7625 56.2304C68.9764 56.0165 69.2665 55.8963 69.569 55.8963H71.8685C72.171 55.8963 72.4611 56.0165 72.675 56.2304C72.8889 56.4443 73.0091 56.7344 73.0091 57.0369C73.0091 57.3395 72.8889 57.6296 72.675 57.8435C72.4611 58.0574 72.171 58.1776 71.8685 58.1776ZM36.4909 26.2389C34.9428 26.3082 33.4274 25.7788 32.2592 24.7607C32.0445 24.5474 31.9234 24.2576 31.9224 23.955C31.9215 23.6525 32.0408 23.3619 32.254 23.1473C32.4673 22.9326 32.7571 22.8115 33.0597 22.8106C33.3622 22.8096 33.6528 22.9289 33.8674 23.1421C34.6158 23.7198 35.5469 24.0092 36.4909 23.9577C37.4359 24.0108 38.3684 23.7208 39.1166 23.141C39.335 22.9353 39.6252 22.8231 39.9252 22.8282C40.2252 22.8333 40.5113 22.9554 40.7226 23.1684C40.9324 23.3802 41.0501 23.6664 41.0501 23.9645C41.0501 24.2627 40.9324 24.5488 40.7226 24.7607C39.5543 25.7788 38.039 26.3082 36.4909 26.2389Z" fill="black"/>
<path d="M36.4909 26.2389C36.1884 26.2389 35.8982 26.1188 35.6843 25.9049C35.4704 25.6909 35.3503 25.4008 35.3503 25.0983V21.665C35.3503 21.3625 35.4704 21.0724 35.6843 20.8585C35.8982 20.6446 36.1884 20.5244 36.4909 20.5244C36.7934 20.5244 37.0835 20.6446 37.2974 20.8585C37.5113 21.0724 37.6315 21.3625 37.6315 21.665V25.0983C37.6315 25.4008 37.5113 25.6909 37.2974 25.9049C37.0835 26.1188 36.7934 26.2389 36.4909 26.2389ZM37.6406 30.7969C37.496 30.7973 37.3528 30.7698 37.2186 30.7159C37.0792 30.6606 36.9521 30.5783 36.8446 30.4738C36.7371 30.3693 36.6512 30.2446 36.592 30.1068C36.5327 29.9691 36.5013 29.821 36.4994 29.6711C36.4975 29.5211 36.5252 29.3723 36.581 29.2331L38.8531 23.5357C38.9666 23.2569 39.1857 23.0343 39.4627 22.9164C39.7396 22.7985 40.0519 22.7948 40.3316 22.9062C40.6112 23.0175 40.8355 23.2349 40.9555 23.5109C41.0755 23.787 41.0816 24.0992 40.9724 24.3797L38.7003 30.0783C38.6158 30.2903 38.4697 30.4722 38.2808 30.6003C38.0919 30.7284 37.8689 30.7969 37.6406 30.7969ZM41.0579 30.7969C40.9134 30.7973 40.7701 30.7698 40.6359 30.7159C40.4965 30.6606 40.3694 30.5783 40.2619 30.4738C40.1544 30.3693 40.0685 30.2446 40.0093 30.1068C39.9501 29.9691 39.9186 29.821 39.9167 29.6711C39.9148 29.5211 39.9425 29.3723 39.9983 29.2331L42.2716 23.5357C42.3898 23.264 42.6092 23.049 42.8832 22.9362C43.1572 22.8234 43.4643 22.8217 43.7396 22.9314C44.0149 23.0411 44.2366 23.2536 44.358 23.5239C44.4793 23.7942 44.4907 24.1012 44.3897 24.3797L42.1176 30.0783C42.0331 30.2903 41.887 30.4722 41.6981 30.6003C41.5092 30.7284 41.2862 30.7969 41.0579 30.7969Z" fill="black"/>
<path d="M35.3366 30.7969C35.1085 30.7966 34.8858 30.7281 34.6971 30.6C34.5084 30.4719 34.3624 30.2902 34.2781 30.0783L32.0059 24.3797C31.905 24.1012 31.9163 23.7942 32.0377 23.5239C32.159 23.2536 32.3808 23.0411 32.656 22.9314C32.9313 22.8217 33.2384 22.8234 33.5124 22.9362C33.7864 23.049 34.0058 23.264 34.1241 23.5357L36.3962 29.2342C36.4518 29.3733 36.4795 29.522 36.4776 29.6717C36.4757 29.8215 36.4442 29.9694 36.3851 30.107C36.326 30.2446 36.2404 30.3692 36.133 30.4737C36.0257 30.5782 35.8989 30.6605 35.7597 30.7159C35.6256 30.7698 35.4823 30.7973 35.3377 30.7969H35.3366ZM31.9192 30.7969C31.6912 30.7966 31.4684 30.7281 31.2798 30.6C31.0911 30.4719 30.9451 30.2902 30.8608 30.0783L28.5875 24.3797C28.4783 24.0992 28.4843 23.787 28.6044 23.5109C28.7244 23.2349 28.9487 23.0175 29.2283 22.9062C29.508 22.7948 29.8203 22.7985 30.0972 22.9164C30.3741 23.0343 30.5932 23.2569 30.7068 23.5357L32.9789 29.2342C33.0345 29.3734 33.0621 29.5221 33.0601 29.6719C33.0581 29.8217 33.0266 29.9697 32.9674 30.1073C32.9081 30.2449 32.8224 30.3695 32.7149 30.4739C32.6075 30.5784 32.4805 30.6606 32.3413 30.7159C32.2071 30.7698 32.0638 30.7973 31.9192 30.7969ZM62.7367 29.6608H59.3148C59.0123 29.6608 58.7221 29.5406 58.5082 29.3267C58.2943 29.1128 58.1742 28.8227 58.1742 28.5202V19.3952H54.7409C54.4384 19.3952 54.1482 19.275 53.9343 19.0611C53.7204 18.8472 53.6003 18.5571 53.6003 18.2546V14.8327C53.6003 14.5302 53.7204 14.2401 53.9343 14.0261C54.1482 13.8122 54.4384 13.6921 54.7409 13.6921H58.1742V10.2702C58.1742 9.96767 58.2943 9.67755 58.5082 9.46364C58.7221 9.24974 59.0123 9.12956 59.3148 9.12956H62.7367C63.0392 9.12956 63.3293 9.24974 63.5432 9.46364C63.7571 9.67755 63.8773 9.96767 63.8773 10.2702V13.6921H67.3083C67.6108 13.6921 67.9009 13.8122 68.1148 14.0261C68.3287 14.2401 68.4489 14.5302 68.4489 14.8327V18.2546C68.4489 18.5571 68.3287 18.8472 68.1148 19.0611C67.9009 19.275 67.6108 19.3952 67.3083 19.3952H63.8773V28.5202C63.8773 28.8227 63.7571 29.1128 63.5432 29.3267C63.3293 29.5406 63.0392 29.6608 62.7367 29.6608ZM60.4554 27.3796H61.596V18.2546C61.596 17.9521 61.7162 17.6619 61.9301 17.448C62.144 17.2341 62.4341 17.1139 62.7367 17.1139H66.1677V15.9733H62.7367C62.4341 15.9733 62.144 15.8531 61.9301 15.6392C61.7162 15.4253 61.596 15.1352 61.596 14.8327V11.4108H60.4554V14.8327C60.4554 15.1352 60.3352 15.4253 60.1213 15.6392C59.9074 15.8531 59.6173 15.9733 59.3148 15.9733H55.8815V17.1139H59.3148C59.6173 17.1139 59.9074 17.2341 60.1213 17.448C60.3352 17.6619 60.4554 17.9521 60.4554 18.2546V27.3796ZM13.6898 29.6608H10.2679C9.96539 29.6608 9.67527 29.5406 9.46136 29.3267C9.24746 29.1128 9.12728 28.8227 9.12728 28.5202V19.3952H5.694C5.39149 19.3952 5.10137 19.275 4.88746 19.0611C4.67355 18.8472 4.55338 18.5571 4.55338 18.2546V14.8327C4.55338 14.5302 4.67355 14.2401 4.88746 14.0261C5.10137 13.8122 5.39149 13.6921 5.694 13.6921H9.12728V10.2702C9.12728 9.96767 9.24746 9.67755 9.46136 9.46364C9.67527 9.24974 9.96539 9.12956 10.2679 9.12956H13.6898C13.9923 9.12956 14.2824 9.24974 14.4963 9.46364C14.7102 9.67755 14.8304 9.96767 14.8304 10.2702V13.6921H18.2614C18.5639 13.6921 18.854 13.8122 19.0679 14.0261C19.2819 14.2401 19.402 14.5302 19.402 14.8327V18.2546C19.402 18.5571 19.2819 18.8472 19.0679 19.0611C18.854 19.275 18.5639 19.3952 18.2614 19.3952H14.8304V28.5202C14.8304 28.8227 14.7102 29.1128 14.4963 29.3267C14.2824 29.5406 13.9923 29.6608 13.6898 29.6608ZM11.4085 27.3796H12.5492V18.2546C12.5492 17.9521 12.6693 17.6619 12.8832 17.448C13.0971 17.2341 13.3873 17.1139 13.6898 17.1139H17.1208V15.9733H13.6898C13.3873 15.9733 13.0971 15.8531 12.8832 15.6392C12.6693 15.4253 12.5492 15.1352 12.5492 14.8327V11.4108H11.4085V14.8327C11.4085 15.1352 11.2884 15.4253 11.0745 15.6392C10.8605 15.8531 10.5704 15.9733 10.2679 15.9733H6.83463V17.1139H10.2679C10.5704 17.1139 10.8605 17.2341 11.0745 17.448C11.2884 17.6619 11.4085 17.9521 11.4085 18.2546V27.3796Z" fill="black"/>
</g>
<defs>
<clipPath id="clip0_31_2">
<rect width="73" height="73" fill="white"/>
</clipPath>
</defs>
</svg>
